<svg width="25" height="18" viewBox="0 0 25 18" fill="none" xmlns="http://www.w3.org/2000/svg">
<path id="Vector" d="M10.4621 3.54786C8.50748 3.54786 6.92298 5.13236 6.92298 7.08692C6.92298 9.04155 8.50748 10.626 10.4621 10.626C12.4167 10.626 14.0011 9.04155 14.0011 7.08692C14.0011 5.13236 12.4167 3.54786 10.4621 3.54786ZM8.69252 7.08692C8.69252 6.10967 9.48476 5.31739 10.4621 5.31739C11.4393 5.31739 12.2316 6.10967 12.2316 7.08692C12.2316 8.06418 11.4393 8.85646 10.4621 8.85646C9.48476 8.85646 8.69252 8.06418 8.69252 7.08692ZM0.434692 2.66309C0.434692 1.19716 1.62306 0.00878906 3.08899 0.00878906H17.8351C19.301 0.00878906 20.4894 1.19716 20.4894 2.66309V11.5108C20.4894 12.9766 19.301 14.1651 17.8351 14.1651H3.08899C1.62306 14.1651 0.434692 12.9766 0.434692 11.5108V2.66309ZM3.08899 1.77832C2.60035 1.77832 2.20423 2.17445 2.20423 2.66309V3.54786H3.08899C3.57763 3.54786 3.97376 3.15173 3.97376 2.66309V1.77832H3.08899ZM2.20423 8.85646H3.08899C4.55492 8.85646 5.74329 10.0449 5.74329 11.5108V12.3955H15.1808V11.5108C15.1808 10.0449 16.3692 8.85646 17.8351 8.85646H18.7199V5.31739H17.8351C16.3692 5.31739 15.1808 4.12902 15.1808 2.66309V1.77832H5.74329V2.66309C5.74329 4.12902 4.55492 5.31739 3.08899 5.31739H2.20423V8.85646ZM18.7199 3.54786V2.66309C18.7199 2.17445 18.3237 1.77832 17.8351 1.77832H16.9503V2.66309C16.9503 3.15173 17.3465 3.54786 17.8351 3.54786H18.7199ZM18.7199 10.626H17.8351C17.3465 10.626 16.9503 11.0221 16.9503 11.5108V12.3955H17.8351C18.3237 12.3955 18.7199 11.9994 18.7199 11.5108V10.626ZM2.20423 11.5108C2.20423 11.9994 2.60035 12.3955 3.08899 12.3955H3.97376V11.5108C3.97376 11.0221 3.57763 10.626 3.08899 10.626H2.20423V11.5108ZM3.26756 15.9346C3.87948 16.9924 5.02321 17.7041 6.33316 17.7041H18.425C21.5197 17.7041 24.0285 15.1954 24.0285 12.1006V5.90724C24.0285 4.59731 23.3168 3.45358 22.2589 2.84166V12.1006C22.2589 14.218 20.5424 15.9346 18.425 15.9346H3.26756Z" fill="url(#paint0_linear_160_3926)"/>
<defs>
<linearGradient id="paint0_linear_160_3926" x1="12.2316" y1="0.00878906" x2="12.2316" y2="17.7041" gradientUnits="userSpaceOnUse">
<stop stop-color="#FF66AE"/>
<stop offset="1" stop-color="#6E26B6"/>
</linearGradient>
</defs>
</svg>
