<svg width="23" height="22" viewBox="0 0 23 22" fill="none" xmlns="http://www.w3.org/2000/svg">
<g id="Heart / undefined / Glyph: undefined">
<path id="Vector" d="M12.4991 5.06456L11.754 5.81126L11.0066 5.06389C9.10108 3.1583 6.0115 3.1583 4.10592 5.06389C2.20033 6.96947 2.20033 10.059 4.10592 11.9647L11.2735 19.1322C11.5394 19.3981 11.9706 19.3981 12.2365 19.1322L19.4096 11.9633C21.3109 10.0514 21.3142 6.9705 19.4083 5.06456C17.4992 3.1555 14.4082 3.1555 12.4991 5.06456ZM18.444 11.0031L11.7549 17.688L5.06881 11.0017C3.69501 9.62791 3.69501 7.40058 5.06881 6.02678C6.44261 4.65298 8.66997 4.65298 10.0438 6.02678L11.2761 7.2591C11.5465 7.52952 11.9865 7.52424 12.2503 7.24744L13.462 6.02746C14.8393 4.65019 17.0681 4.65019 18.4453 6.02746C19.8195 7.40159 19.8172 9.62237 18.444 11.0031Z" fill="url(#paint0_linear_196_4125)"/>
</g>
<defs>
<linearGradient id="paint0_linear_196_4125" x1="11.7567" y1="3.63277" x2="11.7567" y2="19.3316" gradientUnits="userSpaceOnUse">
<stop stop-color="#FF66AE"/>
<stop offset="1" stop-color="#6E26B6"/>
</linearGradient>
</defs>
</svg>
