<svg width="20" height="18" viewBox="0 0 20 18" fill="none" xmlns="http://www.w3.org/2000/svg">
<g id="Frame" clip-path="url(#clip0_359_377)">
<g id="Group">
<path id="Vector" d="M10.946 2.42488C10.9607 2.44081 10.9815 2.44939 11.0024 2.44939C12.9911 2.45307 14.6723 2.45184 16.0447 2.44694C16.9453 2.44326 17.5763 2.5033 17.9354 2.62706C18.6657 2.87826 19.1546 3.3684 19.4021 4.09625C19.521 4.44793 19.5798 5.09368 19.5773 6.03352C19.5712 8.60062 19.5712 11.1677 19.5773 13.7348C19.5798 14.5913 19.5197 15.1905 19.3984 15.5324C19.1472 16.2443 18.6632 16.7283 17.9464 16.9844C17.6217 17.1008 17.1083 17.1584 16.4074 17.1584C10.3995 17.1597 5.78853 17.1584 2.57568 17.1523C1.74735 17.1511 1.07586 16.8472 0.561212 16.2419C0.0772003 15.6733 0.00367956 15.079 0.00367956 14.2789C0.00245421 9.57109 0.00122887 5.75047 3.52327e-06 2.81822C-0.00122182 2.28519 0.0294118 1.77177 0.291636 1.32085C0.795252 0.454528 1.54761 0.0158546 2.54627 0.00605185C3.49469 -0.00375091 5.17954 -0.00252557 7.60082 0.00850254C8.22329 0.0109532 8.79308 0.268276 9.31017 0.779244C9.8481 1.31227 10.3934 1.86122 10.946 2.42488ZM1.9385 15.1256C2.06471 15.2542 2.18847 15.3192 2.31223 15.3192C3.77774 15.3204 8.69505 15.318 17.0654 15.3118C17.8533 15.3106 17.7651 14.7862 17.7663 14.1294C17.77 11.1653 17.77 8.20238 17.7687 5.23827C17.7687 4.72608 17.7467 4.29108 17.1291 4.29231C15.6501 4.29598 13.6479 4.29108 11.1225 4.27638C10.5429 4.2727 10.0785 4.09625 9.72924 3.74948C9.53564 3.5571 8.98668 3.00815 8.08238 2.10139C7.83976 1.85755 7.75031 1.83917 7.41212 1.83794C5.89636 1.83427 4.38184 1.83549 2.86731 1.83917C2.2963 1.84039 1.80494 1.79138 1.80494 2.48002C1.80371 7.52354 1.80371 11.588 1.80494 14.6734C1.80494 14.883 1.84905 15.0337 1.9385 15.1256Z" fill="url(#paint0_linear_359_377)"/>
<path id="Vector_2" d="M6.09733 6.74062C6.09733 7.41334 5.55205 7.95861 4.87934 7.95861C4.20662 7.95861 3.66135 7.41334 3.66135 6.74062C3.66135 6.06791 4.20662 5.52263 4.87934 5.52263C5.55205 5.52263 6.09733 6.06791 6.09733 6.74062Z" fill="url(#paint1_linear_359_377)"/>
<path id="Vector_3" d="M8.49287 9.84075C8.52473 9.87139 8.55414 9.86893 8.5811 9.8334C8.69506 9.68146 9.28322 8.89479 10.3456 7.47339C10.6103 7.11926 10.8235 6.90237 10.9852 6.8215C11.2352 6.69529 11.4876 6.7149 11.7425 6.87909C11.8712 6.96119 12.0341 7.13396 12.229 7.39619C13.7594 9.45109 14.8855 10.9546 15.6097 11.9067C15.7935 12.1481 15.9528 12.4054 15.894 12.7154C15.8364 13.0193 15.6795 13.2386 15.4222 13.3746C15.296 13.442 15.0509 13.4751 14.6894 13.4763C11.718 13.48 8.39485 13.48 4.71759 13.4763C4.45291 13.4763 4.2299 13.4126 4.04732 13.284C3.6258 12.9862 3.56086 12.3919 3.87455 11.9949C4.14658 11.6494 4.93447 10.6593 6.23824 9.0259C6.65608 8.50268 7.11559 8.43651 7.61675 8.82984C7.7111 8.90336 7.86427 9.07859 8.07748 9.35552C8.26128 9.59201 8.39975 9.75375 8.49287 9.84075Z" fill="url(#paint2_linear_359_377)"/>
</g>
</g>
<defs>
<linearGradient id="paint0_linear_359_377" x1="9.78869" y1="-0.000595093" x2="9.78869" y2="17.1589" gradientUnits="userSpaceOnUse">
<stop stop-color="#FF66AE"/>
<stop offset="1" stop-color="#6E26B6"/>
</linearGradient>
<linearGradient id="paint1_linear_359_377" x1="4.87934" y1="5.52263" x2="4.87934" y2="7.95861" gradientUnits="userSpaceOnUse">
<stop stop-color="#FF66AE"/>
<stop offset="1" stop-color="#6E26B6"/>
</linearGradient>
<linearGradient id="paint2_linear_359_377" x1="9.79221" y1="6.73947" x2="9.79221" y2="13.4791" gradientUnits="userSpaceOnUse">
<stop stop-color="#FF66AE"/>
<stop offset="1" stop-color="#6E26B6"/>
</linearGradient>
<clipPath id="clip0_359_377">
<rect width="19.5773" height="17.1597" fill="white"/>
</clipPath>
</defs>
</svg>
