<svg width="22" height="22" viewBox="0 0 22 22" fill="none" xmlns="http://www.w3.org/2000/svg">
<g id="Frame">
<path id="Vector" d="M16.1139 2.72318C17.7433 2.72318 19.0643 4.04413 19.0643 5.67361V16.1136C19.0643 17.7431 17.7433 19.064 16.1139 19.064H5.67388C4.0444 19.064 2.72345 17.7431 2.72345 16.1136V5.67361C2.72345 4.04413 4.0444 2.72318 5.67388 2.72318H16.1139ZM16.6409 17.6128L11.3702 12.4504C11.1296 12.2148 10.7578 12.1933 10.4934 12.3861L10.4175 12.4504L5.14594 17.6125C5.31112 17.6706 5.48881 17.7023 5.67388 17.7023H16.1139C16.2986 17.7023 16.476 17.6708 16.6409 17.6128ZM16.1139 4.08491H5.67388C4.79647 4.08491 4.08519 4.7962 4.08519 5.67361V16.1136C4.08519 16.3028 4.11826 16.4843 4.17893 16.6526L9.46479 11.4773C10.2211 10.7368 11.4091 10.7016 12.2064 11.3717L12.323 11.4774L17.6085 16.6535C17.6694 16.4849 17.7026 16.3032 17.7026 16.1136V5.67361C17.7026 4.7962 16.9913 4.08491 16.1139 4.08491ZM13.8462 5.90057C14.9754 5.90057 15.8907 6.81594 15.8907 7.9451C15.8907 9.07425 14.9754 9.9896 13.8462 9.9896C12.7171 9.9896 11.8017 9.07425 11.8017 7.9451C11.8017 6.81594 12.7171 5.90057 13.8462 5.90057ZM13.8462 7.26231C13.4691 7.26231 13.1635 7.568 13.1635 7.9451C13.1635 8.32219 13.4691 8.62788 13.8462 8.62788C14.2233 8.62788 14.529 8.32219 14.529 7.9451C14.529 7.568 14.2233 7.26231 13.8462 7.26231Z" fill="url(#paint0_linear_196_4121)"/>
</g>
<defs>
<linearGradient id="paint0_linear_196_4121" x1="10.8939" y1="2.72318" x2="10.8939" y2="19.064" gradientUnits="userSpaceOnUse">
<stop stop-color="#FF66AE"/>
<stop offset="1" stop-color="#6E26B6"/>
</linearGradient>
</defs>
</svg>
