<svg width="27" height="30" viewBox="0 0 27 30" fill="none" xmlns="http://www.w3.org/2000/svg">
<g id="plus-solid 1">
<path id="Vector" d="M15.5413 4.67075C15.5413 3.64399 14.7118 2.81445 13.685 2.81445C12.6583 2.81445 11.8287 3.64399 11.8287 4.67075V13.0241H3.47538C2.44861 13.0241 1.61908 13.8536 1.61908 14.8804C1.61908 15.9072 2.44861 16.7367 3.47538 16.7367H11.8287V25.09C11.8287 26.1168 12.6583 26.9463 13.685 26.9463C14.7118 26.9463 15.5413 26.1168 15.5413 25.09V16.7367H23.8947C24.9214 16.7367 25.751 15.9072 25.751 14.8804C25.751 13.8536 24.9214 13.0241 23.8947 13.0241H15.5413V4.67075Z" fill="url(#paint0_linear_196_4324)"/>
</g>
<defs>
<linearGradient id="paint0_linear_196_4324" x1="13.685" y1="2.81445" x2="13.685" y2="26.9463" gradientUnits="userSpaceOnUse">
<stop stop-color="#FF66AE"/>
<stop offset="1" stop-color="#6E26B6"/>
</linearGradient>
</defs>
</svg>
