<svg width="25" height="24" viewBox="0 0 25 24" fill="none" xmlns="http://www.w3.org/2000/svg">
<g id="icon / jam-icons / outline &#38; logos / google">
<path id="Vector" d="M6.876 10.068C6.66325 10.6899 6.55511 11.3427 6.556 12C6.556 12.734 6.688 13.437 6.932 14.086C7.23611 14.8972 7.71379 15.6321 8.33163 16.2393C8.94947 16.8466 9.69254 17.3115 10.5089 17.6015C11.3252 17.8916 12.195 17.9998 13.0575 17.9185C13.9199 17.8372 14.7542 17.5684 15.502 17.131H15.503C16.681 16.4404 17.5862 15.3661 18.067 14.088H12.72V10.132H22.325C22.5734 11.4405 22.5585 12.7854 22.281 14.088C21.8002 16.3399 20.5569 18.3568 18.761 19.798C16.9872 21.2264 14.7774 22.0035 12.5 22C10.783 22.001 9.09462 21.5597 7.59763 20.7187C6.10064 19.8778 4.84546 18.6655 3.95301 17.1986C3.06056 15.7317 2.56093 14.0597 2.50225 12.3437C2.44358 10.6276 2.82783 8.92542 3.618 7.401C4.46097 5.77291 5.73538 4.40796 7.30187 3.4554C8.86837 2.50284 10.6666 1.99936 12.5 2C14.926 2 17.151 2.864 18.883 4.302L15.643 6.954C14.884 6.48164 14.0283 6.18643 13.1395 6.09034C12.2507 5.99424 11.3517 6.09972 10.5093 6.39894C9.6669 6.69816 8.90277 7.18342 8.27374 7.81864C7.64471 8.45386 7.16695 9.2227 6.876 10.068Z" fill="white"/>
</g>
</svg>
